# xmcd
#
# Track frame offsets:
#       150
#       14545
#       30980
#       42810
#       58587
#       75150
#       88122
#       107857
#       124387
#       141525
#       159387
#       177132
#       184915
#       198982
#
# Disc length: 2857 seconds
#
# Revision: 1
# Processed by: cddbd v1.4PL0 Copyright (c) Steve Scherf et al.
# Submitted via: MusiCat 1.1
#
DISCID=b60b270e
DTITLE=Shot Gone - A Second Gone
DYEAR=1994
DGENRE=
TTITLE0=Waiting Hard For Tomorrow
TTITLE1=Lullaby
TTITLE2=Guts
TTITLE3=Me And My Square Bottle
TTITLE4=Let´s Get Down To Business
TTITLE5=Make Up Your Mind
TTITLE6=She Was So Fine
TTITLE7=Free People Unite
TTITLE8=How Come (How Can It Be)
TTITLE9=Pay Respect
TTITLE10=Not Tonight
TTITLE11=Why Blue
TTITLE12=In June She Shines
TTITLE13=Lazy Sunday
EXTD=\n\n
EXTT0=
EXTT1=
EXTT2=
EXTT3=
EXTT4=
EXTT5=
EXTT6=
EXTT7=
EXTT8=
EXTT9=
EXTT10=
EXTT11=
EXTT12=
EXTT13=
PLAYORDER=
